<mxfile host="app.diagrams.net" modified="2023-10-27T17:53:58.285Z" agent="Mozilla/5.0 (Windows NT 10.0; Win64; x64) AppleWebKit/537.36 (KHTML, like Gecko) Chrome/117.0.0.0 Safari/537.36 Edg/117.0.2045.36" etag="XJY5CnFsqXZehnjBD8lk" version="22.0.8" type="device" pages="3">
  <diagram name="Home" id="GWiMtT0e5DqtILCh8_0i">
    <mxGraphModel dx="1387" dy="767" grid="1" gridSize="10" guides="1" tooltips="1" connect="1" arrows="1" fold="1" page="1" pageScale="1" pageWidth="1169" pageHeight="827" math="0" shadow="0">
      <root>
        <mxCell id="0" />
        <mxCell id="1" parent="0" />
        <mxCell id="vj-qtJoO59ucQnTQ0JGd-2" value="" style="verticalLabelPosition=bottom;shadow=0;dashed=0;align=center;html=1;verticalAlign=top;strokeWidth=1;shape=mxgraph.mockup.graphics.simpleIcon;strokeColor=#999999;direction=west;" parent="1" vertex="1">
          <mxGeometry x="15" y="10" width="1140" height="260" as="geometry" />
        </mxCell>
        <mxCell id="8JzA3NTI266D-M-EUL4F-1" value="Lorem ipsum dolor sit amet, consectetur adipisicing elit, sed do eiusmod tempor incididunt ut labore et dolore magna aliqua. Ut enim ad minim veniam, quis nostrud exercitation ullamco laboris nisi ut aliquip ex ea commodo consequat. Duis aute irure dolor in reprehenderit in voluptate velit esse cillum dolore eu fugiat nulla pariatur. Excepteur sint occaecat cupidatat non proident, sunt in culpa qui officia deserunt mollit anim id est laborum." style="text;spacingTop=-5;whiteSpace=wrap;html=1;align=left;fontSize=18;fontFamily=Helvetica;fillColor=none;strokeColor=none;" parent="1" vertex="1">
          <mxGeometry x="310" y="490" width="490" height="90" as="geometry" />
        </mxCell>
        <mxCell id="8JzA3NTI266D-M-EUL4F-2" value="Lorem ipsum dolor&amp;nbsp;" style="text;spacingTop=-5;whiteSpace=wrap;html=1;align=left;fontSize=25;fontFamily=Helvetica;fillColor=none;strokeColor=none;fontStyle=1;verticalAlign=middle;" parent="1" vertex="1">
          <mxGeometry x="410" y="389" width="240" height="50" as="geometry" />
        </mxCell>
        <mxCell id="8JzA3NTI266D-M-EUL4F-3" value="menu" style="strokeWidth=1;shadow=0;dashed=0;align=center;html=1;shape=mxgraph.mockup.buttons.button;strokeColor=#666666;fontColor=#ffffff;mainText=;buttonStyle=round;fontSize=17;fontStyle=1;fillColor=#008cff;whiteSpace=wrap;" parent="1" vertex="1">
          <mxGeometry x="970" y="30" width="140" height="40" as="geometry" />
        </mxCell>
        <mxCell id="t8Yct_-SfaM9aRnuGFuA-1" value="" style="ellipse;whiteSpace=wrap;html=1;aspect=fixed;" vertex="1" parent="1">
          <mxGeometry x="60" y="30" width="80" height="80" as="geometry" />
        </mxCell>
        <mxCell id="t8Yct_-SfaM9aRnuGFuA-3" value="" style="rounded=0;whiteSpace=wrap;html=1;" vertex="1" parent="1">
          <mxGeometry x="600" y="30" width="80" height="30" as="geometry" />
        </mxCell>
        <mxCell id="t8Yct_-SfaM9aRnuGFuA-4" value="" style="rounded=0;whiteSpace=wrap;html=1;" vertex="1" parent="1">
          <mxGeometry x="810" y="30" width="80" height="30" as="geometry" />
        </mxCell>
        <mxCell id="t8Yct_-SfaM9aRnuGFuA-6" style="edgeStyle=orthogonalEdgeStyle;rounded=0;orthogonalLoop=1;jettySize=auto;html=1;exitX=0.25;exitY=1;exitDx=0;exitDy=0;" edge="1" parent="1" source="8JzA3NTI266D-M-EUL4F-1" target="8JzA3NTI266D-M-EUL4F-1">
          <mxGeometry relative="1" as="geometry" />
        </mxCell>
        <mxCell id="t8Yct_-SfaM9aRnuGFuA-7" value="menu" style="strokeWidth=1;shadow=0;dashed=0;align=center;html=1;shape=mxgraph.mockup.buttons.button;strokeColor=#666666;fontColor=#ffffff;mainText=;buttonStyle=round;fontSize=17;fontStyle=1;fillColor=#008cff;whiteSpace=wrap;" vertex="1" parent="1">
          <mxGeometry x="570" y="30" width="140" height="40" as="geometry" />
        </mxCell>
        <mxCell id="t8Yct_-SfaM9aRnuGFuA-8" value="menu" style="strokeWidth=1;shadow=0;dashed=0;align=center;html=1;shape=mxgraph.mockup.buttons.button;strokeColor=#666666;fontColor=#ffffff;mainText=;buttonStyle=round;fontSize=17;fontStyle=1;fillColor=#008cff;whiteSpace=wrap;" vertex="1" parent="1">
          <mxGeometry x="770" y="30" width="140" height="40" as="geometry" />
        </mxCell>
      </root>
    </mxGraphModel>
  </diagram>
  <diagram id="VgM5lU4q05OkGia0pzVO" name="About">
    <mxGraphModel dx="1664" dy="920" grid="1" gridSize="10" guides="1" tooltips="1" connect="1" arrows="1" fold="1" page="1" pageScale="1" pageWidth="1169" pageHeight="827" math="0" shadow="0">
      <root>
        <mxCell id="0" />
        <mxCell id="1" parent="0" />
        <mxCell id="e12vvNjCy11CAZPHuTNJ-1" value="Lorem ipsum dolor sit amet, consectetur adipisicing elit, sed do eiusmod tempor incididunt ut labore et dolore magna aliqua. Ut enim ad minim veniam, quis nostrud exercitation ullamco laboris nisi ut aliquip ex ea commodo consequat. Duis aute irure dolor in reprehenderit in voluptate velit esse cillum dolore eu fugiat nulla pariatur. Excepteur sint occaecat cupidatat non proident, sunt in culpa qui officia deserunt mollit anim id est laborum." style="text;spacingTop=-5;whiteSpace=wrap;html=1;align=left;fontSize=18;fontFamily=Helvetica;fillColor=none;strokeColor=none;" parent="1" vertex="1">
          <mxGeometry x="100" y="882" width="1000" height="90" as="geometry" />
        </mxCell>
        <mxCell id="e12vvNjCy11CAZPHuTNJ-2" value="Lorem ipsum dolor&amp;nbsp;" style="text;spacingTop=-5;whiteSpace=wrap;html=1;align=left;fontSize=25;fontFamily=Helvetica;fillColor=none;strokeColor=none;fontStyle=1;verticalAlign=middle;" parent="1" vertex="1">
          <mxGeometry x="100" y="813" width="240" height="50" as="geometry" />
        </mxCell>
        <mxCell id="HqywgXEak3AqZXudr7r2-3" value="" style="group" parent="1" vertex="1" connectable="0">
          <mxGeometry x="110" y="1019" width="230" height="241" as="geometry" />
        </mxCell>
        <mxCell id="HqywgXEak3AqZXudr7r2-1" value="Lorem ipsum dolor sit amet, consectetur adipisicing elit, sed do eiusmod tempor&amp;nbsp;" style="text;spacingTop=-5;whiteSpace=wrap;html=1;align=left;fontSize=18;fontFamily=Helvetica;fillColor=none;strokeColor=none;" parent="HqywgXEak3AqZXudr7r2-3" vertex="1">
          <mxGeometry y="171" width="230" height="70" as="geometry" />
        </mxCell>
        <mxCell id="HqywgXEak3AqZXudr7r2-4" value="" style="group" parent="HqywgXEak3AqZXudr7r2-3" vertex="1" connectable="0">
          <mxGeometry width="230" height="181" as="geometry" />
        </mxCell>
        <mxCell id="At-IF_TbB9sw6rBj21lN-1" value="" style="verticalLabelPosition=bottom;shadow=0;dashed=0;align=center;html=1;verticalAlign=top;strokeWidth=1;shape=mxgraph.mockup.graphics.simpleIcon;strokeColor=#999999;" parent="HqywgXEak3AqZXudr7r2-4" vertex="1">
          <mxGeometry width="220" height="131" as="geometry" />
        </mxCell>
        <mxCell id="HqywgXEak3AqZXudr7r2-2" value="Lorem ipsum dol&amp;nbsp;" style="text;spacingTop=-5;whiteSpace=wrap;html=1;align=left;fontSize=25;fontFamily=Helvetica;fillColor=none;strokeColor=none;fontStyle=1;verticalAlign=middle;" parent="HqywgXEak3AqZXudr7r2-4" vertex="1">
          <mxGeometry y="131" width="230" height="50" as="geometry" />
        </mxCell>
        <mxCell id="HqywgXEak3AqZXudr7r2-5" value="" style="group" parent="1" vertex="1" connectable="0">
          <mxGeometry x="469.5" y="1020" width="230" height="241" as="geometry" />
        </mxCell>
        <mxCell id="HqywgXEak3AqZXudr7r2-6" value="Lorem ipsum dolor sit amet, consectetur adipisicing elit, sed do eiusmod tempor&amp;nbsp;" style="text;spacingTop=-5;whiteSpace=wrap;html=1;align=left;fontSize=18;fontFamily=Helvetica;fillColor=none;strokeColor=none;" parent="HqywgXEak3AqZXudr7r2-5" vertex="1">
          <mxGeometry y="171" width="230" height="70" as="geometry" />
        </mxCell>
        <mxCell id="HqywgXEak3AqZXudr7r2-7" value="" style="group" parent="HqywgXEak3AqZXudr7r2-5" vertex="1" connectable="0">
          <mxGeometry width="230" height="181" as="geometry" />
        </mxCell>
        <mxCell id="HqywgXEak3AqZXudr7r2-8" value="" style="verticalLabelPosition=bottom;shadow=0;dashed=0;align=center;html=1;verticalAlign=top;strokeWidth=1;shape=mxgraph.mockup.graphics.simpleIcon;strokeColor=#999999;" parent="HqywgXEak3AqZXudr7r2-7" vertex="1">
          <mxGeometry width="220" height="131" as="geometry" />
        </mxCell>
        <mxCell id="HqywgXEak3AqZXudr7r2-9" value="Lorem ipsum dol&amp;nbsp;" style="text;spacingTop=-5;whiteSpace=wrap;html=1;align=left;fontSize=25;fontFamily=Helvetica;fillColor=none;strokeColor=none;fontStyle=1;verticalAlign=middle;" parent="HqywgXEak3AqZXudr7r2-7" vertex="1">
          <mxGeometry y="131" width="230" height="50" as="geometry" />
        </mxCell>
        <mxCell id="HqywgXEak3AqZXudr7r2-10" value="" style="group" parent="1" vertex="1" connectable="0">
          <mxGeometry x="830" y="1020" width="230" height="241" as="geometry" />
        </mxCell>
        <mxCell id="HqywgXEak3AqZXudr7r2-11" value="Lorem ipsum dolor sit amet, consectetur adipisicing elit, sed do eiusmod tempor&amp;nbsp;" style="text;spacingTop=-5;whiteSpace=wrap;html=1;align=left;fontSize=18;fontFamily=Helvetica;fillColor=none;strokeColor=none;" parent="HqywgXEak3AqZXudr7r2-10" vertex="1">
          <mxGeometry y="171" width="230" height="70" as="geometry" />
        </mxCell>
        <mxCell id="HqywgXEak3AqZXudr7r2-12" value="" style="group" parent="HqywgXEak3AqZXudr7r2-10" vertex="1" connectable="0">
          <mxGeometry width="230" height="181" as="geometry" />
        </mxCell>
        <mxCell id="HqywgXEak3AqZXudr7r2-13" value="" style="verticalLabelPosition=bottom;shadow=0;dashed=0;align=center;html=1;verticalAlign=top;strokeWidth=1;shape=mxgraph.mockup.graphics.simpleIcon;strokeColor=#999999;" parent="HqywgXEak3AqZXudr7r2-12" vertex="1">
          <mxGeometry width="220" height="131" as="geometry" />
        </mxCell>
        <mxCell id="HqywgXEak3AqZXudr7r2-14" value="Lorem ipsum dol&amp;nbsp;" style="text;spacingTop=-5;whiteSpace=wrap;html=1;align=left;fontSize=25;fontFamily=Helvetica;fillColor=none;strokeColor=none;fontStyle=1;verticalAlign=middle;" parent="HqywgXEak3AqZXudr7r2-12" vertex="1">
          <mxGeometry y="131" width="230" height="50" as="geometry" />
        </mxCell>
        <mxCell id="HqywgXEak3AqZXudr7r2-15" value="" style="group" parent="1" vertex="1" connectable="0">
          <mxGeometry x="110" y="1330" width="230" height="241" as="geometry" />
        </mxCell>
        <mxCell id="HqywgXEak3AqZXudr7r2-16" value="Lorem ipsum dolor sit amet, consectetur adipisicing elit, sed do eiusmod tempor&amp;nbsp;" style="text;spacingTop=-5;whiteSpace=wrap;html=1;align=left;fontSize=18;fontFamily=Helvetica;fillColor=none;strokeColor=none;" parent="HqywgXEak3AqZXudr7r2-15" vertex="1">
          <mxGeometry y="171" width="230" height="70" as="geometry" />
        </mxCell>
        <mxCell id="HqywgXEak3AqZXudr7r2-17" value="" style="group" parent="HqywgXEak3AqZXudr7r2-15" vertex="1" connectable="0">
          <mxGeometry width="230" height="181" as="geometry" />
        </mxCell>
        <mxCell id="HqywgXEak3AqZXudr7r2-18" value="" style="verticalLabelPosition=bottom;shadow=0;dashed=0;align=center;html=1;verticalAlign=top;strokeWidth=1;shape=mxgraph.mockup.graphics.simpleIcon;strokeColor=#999999;" parent="HqywgXEak3AqZXudr7r2-17" vertex="1">
          <mxGeometry width="220" height="131" as="geometry" />
        </mxCell>
        <mxCell id="HqywgXEak3AqZXudr7r2-19" value="Lorem ipsum dol&amp;nbsp;" style="text;spacingTop=-5;whiteSpace=wrap;html=1;align=left;fontSize=25;fontFamily=Helvetica;fillColor=none;strokeColor=none;fontStyle=1;verticalAlign=middle;" parent="HqywgXEak3AqZXudr7r2-17" vertex="1">
          <mxGeometry y="131" width="230" height="50" as="geometry" />
        </mxCell>
        <mxCell id="HqywgXEak3AqZXudr7r2-20" value="" style="group" parent="1" vertex="1" connectable="0">
          <mxGeometry x="469.5" y="1330" width="230" height="241" as="geometry" />
        </mxCell>
        <mxCell id="HqywgXEak3AqZXudr7r2-21" value="Lorem ipsum dolor sit amet, consectetur adipisicing elit, sed do eiusmod tempor&amp;nbsp;" style="text;spacingTop=-5;whiteSpace=wrap;html=1;align=left;fontSize=18;fontFamily=Helvetica;fillColor=none;strokeColor=none;" parent="HqywgXEak3AqZXudr7r2-20" vertex="1">
          <mxGeometry y="171" width="230" height="70" as="geometry" />
        </mxCell>
        <mxCell id="HqywgXEak3AqZXudr7r2-22" value="" style="group" parent="HqywgXEak3AqZXudr7r2-20" vertex="1" connectable="0">
          <mxGeometry width="230" height="181" as="geometry" />
        </mxCell>
        <mxCell id="HqywgXEak3AqZXudr7r2-23" value="" style="verticalLabelPosition=bottom;shadow=0;dashed=0;align=center;html=1;verticalAlign=top;strokeWidth=1;shape=mxgraph.mockup.graphics.simpleIcon;strokeColor=#999999;" parent="HqywgXEak3AqZXudr7r2-22" vertex="1">
          <mxGeometry width="220" height="131" as="geometry" />
        </mxCell>
        <mxCell id="HqywgXEak3AqZXudr7r2-24" value="Lorem ipsum dol&amp;nbsp;" style="text;spacingTop=-5;whiteSpace=wrap;html=1;align=left;fontSize=25;fontFamily=Helvetica;fillColor=none;strokeColor=none;fontStyle=1;verticalAlign=middle;" parent="HqywgXEak3AqZXudr7r2-22" vertex="1">
          <mxGeometry y="131" width="230" height="50" as="geometry" />
        </mxCell>
        <mxCell id="HqywgXEak3AqZXudr7r2-25" value="" style="group" parent="1" vertex="1" connectable="0">
          <mxGeometry x="830" y="1330" width="230" height="241" as="geometry" />
        </mxCell>
        <mxCell id="HqywgXEak3AqZXudr7r2-26" value="Lorem ipsum dolor sit amet, consectetur adipisicing elit, sed do eiusmod tempor&amp;nbsp;" style="text;spacingTop=-5;whiteSpace=wrap;html=1;align=left;fontSize=18;fontFamily=Helvetica;fillColor=none;strokeColor=none;" parent="HqywgXEak3AqZXudr7r2-25" vertex="1">
          <mxGeometry y="171" width="230" height="70" as="geometry" />
        </mxCell>
        <mxCell id="HqywgXEak3AqZXudr7r2-27" value="" style="group" parent="HqywgXEak3AqZXudr7r2-25" vertex="1" connectable="0">
          <mxGeometry width="230" height="181" as="geometry" />
        </mxCell>
        <mxCell id="HqywgXEak3AqZXudr7r2-28" value="" style="verticalLabelPosition=bottom;shadow=0;dashed=0;align=center;html=1;verticalAlign=top;strokeWidth=1;shape=mxgraph.mockup.graphics.simpleIcon;strokeColor=#999999;" parent="HqywgXEak3AqZXudr7r2-27" vertex="1">
          <mxGeometry width="220" height="131" as="geometry" />
        </mxCell>
        <mxCell id="HqywgXEak3AqZXudr7r2-29" value="Lorem ipsum dol&amp;nbsp;" style="text;spacingTop=-5;whiteSpace=wrap;html=1;align=left;fontSize=25;fontFamily=Helvetica;fillColor=none;strokeColor=none;fontStyle=1;verticalAlign=middle;" parent="HqywgXEak3AqZXudr7r2-27" vertex="1">
          <mxGeometry y="131" width="230" height="50" as="geometry" />
        </mxCell>
        <mxCell id="HqywgXEak3AqZXudr7r2-30" value="" style="verticalLabelPosition=bottom;shadow=0;dashed=0;align=center;html=1;verticalAlign=top;strokeWidth=1;shape=mxgraph.mockup.graphics.simpleIcon;strokeColor=#999999;fontSize=30;" parent="1" vertex="1">
          <mxGeometry x="90" y="170" width="760" height="640" as="geometry" />
        </mxCell>
        <mxCell id="HqywgXEak3AqZXudr7r2-31" value="" style="rounded=0;whiteSpace=wrap;html=1;fontSize=30;" parent="1" vertex="1">
          <mxGeometry x="520" y="250" width="590" height="430" as="geometry" />
        </mxCell>
        <mxCell id="HqywgXEak3AqZXudr7r2-32" value="Lorem ipsum dolor sit amet, consectetur adipisicing elit, sed do eiusmod tempor incididunt ut labore et dolore magna aliqua. Ut enim ad minim veniam, quis nostrud exercitation ullamco laboris nisi ut aliquip ex ea commodo consequat. Duis aute irure dolor in reprehenderit in voluptate velit esse cillum dolore eu fugiat nulla pariatur." style="text;spacingTop=-5;whiteSpace=wrap;html=1;align=left;fontSize=30;fontFamily=Helvetica;fillColor=none;strokeColor=none;" parent="1" vertex="1">
          <mxGeometry x="550" y="290" width="530" height="330" as="geometry" />
        </mxCell>
        <mxCell id="WmWE3L1nm67P7dyShC9x-1" value="menu" style="strokeWidth=1;shadow=0;dashed=0;align=center;html=1;shape=mxgraph.mockup.buttons.button;strokeColor=#666666;fontColor=#ffffff;mainText=;buttonStyle=round;fontSize=17;fontStyle=1;fillColor=#008cff;whiteSpace=wrap;" vertex="1" parent="1">
          <mxGeometry x="970" y="30" width="140" height="40" as="geometry" />
        </mxCell>
        <mxCell id="WmWE3L1nm67P7dyShC9x-2" value="" style="ellipse;whiteSpace=wrap;html=1;aspect=fixed;" vertex="1" parent="1">
          <mxGeometry x="60" y="30" width="80" height="80" as="geometry" />
        </mxCell>
        <mxCell id="WmWE3L1nm67P7dyShC9x-3" value="menu" style="strokeWidth=1;shadow=0;dashed=0;align=center;html=1;shape=mxgraph.mockup.buttons.button;strokeColor=#666666;fontColor=#ffffff;mainText=;buttonStyle=round;fontSize=17;fontStyle=1;fillColor=#008cff;whiteSpace=wrap;" vertex="1" parent="1">
          <mxGeometry x="570" y="30" width="140" height="40" as="geometry" />
        </mxCell>
        <mxCell id="WmWE3L1nm67P7dyShC9x-4" value="menu" style="strokeWidth=1;shadow=0;dashed=0;align=center;html=1;shape=mxgraph.mockup.buttons.button;strokeColor=#666666;fontColor=#ffffff;mainText=;buttonStyle=round;fontSize=17;fontStyle=1;fillColor=#008cff;whiteSpace=wrap;" vertex="1" parent="1">
          <mxGeometry x="770" y="30" width="140" height="40" as="geometry" />
        </mxCell>
      </root>
    </mxGraphModel>
  </diagram>
  <diagram id="mF2L9wXjWidI5smEaFTE" name="Contact">
    <mxGraphModel dx="1664" dy="920" grid="1" gridSize="10" guides="1" tooltips="1" connect="1" arrows="1" fold="1" page="1" pageScale="1" pageWidth="1169" pageHeight="827" math="0" shadow="0">
      <root>
        <mxCell id="0" />
        <mxCell id="1" parent="0" />
        <mxCell id="b-f6iDegZE59Yu22D2ux-3" value="" style="rounded=0;whiteSpace=wrap;html=1;" parent="1" vertex="1">
          <mxGeometry x="80" y="400" width="760" height="400" as="geometry" />
        </mxCell>
        <mxCell id="b-f6iDegZE59Yu22D2ux-8" value="Lorem ipsum dolor sit amet, consectetur adipisicing elit, sed do eiusmod tempor incididunt ut labore et dolore magna aliqua. Ut enim ad minim veniam, quis nostrud exercitation ullamco laboris nisi ut aliquip ex ea commodo consequat. Duis aute irure dolor in reprehenderit in voluptate velit esse cillum dolore eu fugiat nulla pariatur. Excepteur sint occaecat cupidatat non proident, sunt in culpa qui officia deserunt mollit anim id est laborum." style="text;spacingTop=-5;whiteSpace=wrap;html=1;align=left;fontSize=18;fontFamily=Helvetica;fillColor=none;strokeColor=none;" parent="1" vertex="1">
          <mxGeometry x="80" y="242" width="1000" height="90" as="geometry" />
        </mxCell>
        <mxCell id="b-f6iDegZE59Yu22D2ux-15" value="Lorem ipsum dolor&amp;nbsp;" style="text;spacingTop=-5;whiteSpace=wrap;html=1;align=left;fontSize=25;fontFamily=Helvetica;fillColor=none;strokeColor=none;fontStyle=1;verticalAlign=middle;" parent="1" vertex="1">
          <mxGeometry x="80" y="180" width="240" height="50" as="geometry" />
        </mxCell>
        <mxCell id="b-f6iDegZE59Yu22D2ux-20" value="Button" style="strokeWidth=1;shadow=0;dashed=0;align=center;html=1;shape=mxgraph.mockup.text.rrect;rSize=0;fontSize=17;fontColor=#ffffff;fillColor=#008cff;strokeColor=#008cff;" parent="1" vertex="1">
          <mxGeometry x="160" y="740" width="610" height="25" as="geometry" />
        </mxCell>
        <mxCell id="b-f6iDegZE59Yu22D2ux-52" value="" style="group" parent="1" vertex="1" connectable="0">
          <mxGeometry x="150" y="440" width="620" height="270" as="geometry" />
        </mxCell>
        <mxCell id="b-f6iDegZE59Yu22D2ux-34" value="" style="rounded=0;whiteSpace=wrap;html=1;fontSize=25;" parent="b-f6iDegZE59Yu22D2ux-52" vertex="1">
          <mxGeometry x="10.87719298245614" y="110" width="609.1228070175439" height="160" as="geometry" />
        </mxCell>
        <mxCell id="b-f6iDegZE59Yu22D2ux-39" value="Lorem Ipsum" style="text;html=1;strokeColor=none;fillColor=none;align=center;verticalAlign=middle;whiteSpace=wrap;rounded=0;fontSize=17;" parent="b-f6iDegZE59Yu22D2ux-52" vertex="1">
          <mxGeometry x="10.87719298245614" y="110" width="152.28070175438597" height="30" as="geometry" />
        </mxCell>
        <mxCell id="b-f6iDegZE59Yu22D2ux-51" value="" style="group" parent="b-f6iDegZE59Yu22D2ux-52" vertex="1" connectable="0">
          <mxGeometry width="620" height="80" as="geometry" />
        </mxCell>
        <mxCell id="b-f6iDegZE59Yu22D2ux-41" value="" style="group" parent="b-f6iDegZE59Yu22D2ux-51" vertex="1" connectable="0">
          <mxGeometry y="50" width="281.34453781512605" height="30" as="geometry" />
        </mxCell>
        <mxCell id="b-f6iDegZE59Yu22D2ux-35" value="" style="rounded=0;whiteSpace=wrap;html=1;fontSize=25;" parent="b-f6iDegZE59Yu22D2ux-41" vertex="1">
          <mxGeometry x="10.420168067226891" width="270.92436974789916" height="30" as="geometry" />
        </mxCell>
        <mxCell id="b-f6iDegZE59Yu22D2ux-40" value="Lorem Ipsum" style="text;html=1;strokeColor=none;fillColor=none;align=center;verticalAlign=middle;whiteSpace=wrap;rounded=0;fontSize=17;" parent="b-f6iDegZE59Yu22D2ux-41" vertex="1">
          <mxGeometry width="145.8823529411765" height="30" as="geometry" />
        </mxCell>
        <mxCell id="b-f6iDegZE59Yu22D2ux-42" value="" style="group" parent="b-f6iDegZE59Yu22D2ux-51" vertex="1" connectable="0">
          <mxGeometry x="338.65546218487395" width="281.34453781512605" height="30" as="geometry" />
        </mxCell>
        <mxCell id="b-f6iDegZE59Yu22D2ux-43" value="" style="rounded=0;whiteSpace=wrap;html=1;fontSize=25;" parent="b-f6iDegZE59Yu22D2ux-42" vertex="1">
          <mxGeometry x="10.420168067226891" width="270.92436974789916" height="30" as="geometry" />
        </mxCell>
        <mxCell id="b-f6iDegZE59Yu22D2ux-44" value="Lorem Ipsum" style="text;html=1;strokeColor=none;fillColor=none;align=center;verticalAlign=middle;whiteSpace=wrap;rounded=0;fontSize=17;" parent="b-f6iDegZE59Yu22D2ux-42" vertex="1">
          <mxGeometry width="145.8823529411765" height="30" as="geometry" />
        </mxCell>
        <mxCell id="b-f6iDegZE59Yu22D2ux-45" value="" style="group" parent="b-f6iDegZE59Yu22D2ux-51" vertex="1" connectable="0">
          <mxGeometry width="281.34453781512605" height="30" as="geometry" />
        </mxCell>
        <mxCell id="b-f6iDegZE59Yu22D2ux-46" value="" style="rounded=0;whiteSpace=wrap;html=1;fontSize=25;" parent="b-f6iDegZE59Yu22D2ux-45" vertex="1">
          <mxGeometry x="10.420168067226891" width="270.92436974789916" height="30" as="geometry" />
        </mxCell>
        <mxCell id="b-f6iDegZE59Yu22D2ux-47" value="Lorem Ipsum" style="text;html=1;strokeColor=none;fillColor=none;align=center;verticalAlign=middle;whiteSpace=wrap;rounded=0;fontSize=17;" parent="b-f6iDegZE59Yu22D2ux-45" vertex="1">
          <mxGeometry width="145.8823529411765" height="30" as="geometry" />
        </mxCell>
        <mxCell id="b-f6iDegZE59Yu22D2ux-48" value="" style="group" parent="b-f6iDegZE59Yu22D2ux-51" vertex="1" connectable="0">
          <mxGeometry x="338.65546218487395" y="50" width="281.34453781512605" height="30" as="geometry" />
        </mxCell>
        <mxCell id="b-f6iDegZE59Yu22D2ux-49" value="" style="rounded=0;whiteSpace=wrap;html=1;fontSize=25;" parent="b-f6iDegZE59Yu22D2ux-48" vertex="1">
          <mxGeometry x="10.420168067226891" width="270.92436974789916" height="30" as="geometry" />
        </mxCell>
        <mxCell id="b-f6iDegZE59Yu22D2ux-50" value="Lorem Ipsum" style="text;html=1;strokeColor=none;fillColor=none;align=center;verticalAlign=middle;whiteSpace=wrap;rounded=0;fontSize=17;" parent="b-f6iDegZE59Yu22D2ux-48" vertex="1">
          <mxGeometry width="145.8823529411765" height="30" as="geometry" />
        </mxCell>
        <mxCell id="b-f6iDegZE59Yu22D2ux-59" value="Lorem ipsum dolor sit amet, consectetur adipisicing elit, sed do eiusmod tempor&amp;nbsp;" style="text;spacingTop=-5;whiteSpace=wrap;html=1;align=left;fontSize=18;fontFamily=Helvetica;fillColor=none;strokeColor=none;" parent="1" vertex="1">
          <mxGeometry x="890" y="640" width="170" height="90" as="geometry" />
        </mxCell>
        <mxCell id="b-f6iDegZE59Yu22D2ux-61" value="Lorem ipsum dolor sit amet, consectetur adipisicing elit, sed do eiusmod tempor&amp;nbsp;" style="text;spacingTop=-5;whiteSpace=wrap;html=1;align=left;fontSize=18;fontFamily=Helvetica;fillColor=none;strokeColor=none;" parent="1" vertex="1">
          <mxGeometry x="890" y="470" width="170" height="90" as="geometry" />
        </mxCell>
        <mxCell id="P0qd1waGlgn7gG0ZB6WR-1" value="menu" style="strokeWidth=1;shadow=0;dashed=0;align=center;html=1;shape=mxgraph.mockup.buttons.button;strokeColor=#666666;fontColor=#ffffff;mainText=;buttonStyle=round;fontSize=17;fontStyle=1;fillColor=#008cff;whiteSpace=wrap;" vertex="1" parent="1">
          <mxGeometry x="970" y="30" width="140" height="40" as="geometry" />
        </mxCell>
        <mxCell id="P0qd1waGlgn7gG0ZB6WR-2" value="" style="ellipse;whiteSpace=wrap;html=1;aspect=fixed;" vertex="1" parent="1">
          <mxGeometry x="60" y="30" width="80" height="80" as="geometry" />
        </mxCell>
        <mxCell id="P0qd1waGlgn7gG0ZB6WR-3" value="menu" style="strokeWidth=1;shadow=0;dashed=0;align=center;html=1;shape=mxgraph.mockup.buttons.button;strokeColor=#666666;fontColor=#ffffff;mainText=;buttonStyle=round;fontSize=17;fontStyle=1;fillColor=#008cff;whiteSpace=wrap;" vertex="1" parent="1">
          <mxGeometry x="570" y="30" width="140" height="40" as="geometry" />
        </mxCell>
        <mxCell id="P0qd1waGlgn7gG0ZB6WR-4" value="menu" style="strokeWidth=1;shadow=0;dashed=0;align=center;html=1;shape=mxgraph.mockup.buttons.button;strokeColor=#666666;fontColor=#ffffff;mainText=;buttonStyle=round;fontSize=17;fontStyle=1;fillColor=#008cff;whiteSpace=wrap;" vertex="1" parent="1">
          <mxGeometry x="770" y="30" width="140" height="40" as="geometry" />
        </mxCell>
      </root>
    </mxGraphModel>
  </diagram>
</mxfile>
